<svg width="20" height="20" viewBox="0 0 20 20" fill="none" xmlns="http://www.w3.org/2000/svg">
<path d="M4.98382 4.54098H18.5577L16.6253 12.7538C16.3743 13.8201 15.4228 14.5738 14.3274 14.5738H9.45671C8.38555 14.5738 7.44868 13.8526 7.1746 12.8172L4.98382 4.54098ZM4.98382 4.54098L4.09857 1H1.44281" stroke="#595667" stroke-width="1.5" stroke-linecap="round" stroke-linejoin="round"/>
<path d="M7.64054 19C8.29242 19 8.82088 18.4715 8.82088 17.8197C8.82088 17.1678 8.29242 16.6393 7.64054 16.6393C6.98866 16.6393 6.46021 17.1678 6.46021 17.8197C6.46021 18.4715 6.98866 19 7.64054 19Z" fill="#595667"/>
<path d="M15.9036 19C16.5555 19 17.0839 18.4715 17.0839 17.8197C17.0839 17.1678 16.5555 16.6393 15.9036 16.6393C15.2517 16.6393 14.7233 17.1678 14.7233 17.8197C14.7233 18.4715 15.2517 19 15.9036 19Z" fill="#595667"/>
</svg>
